<svg width="60" height="27" viewBox="0 0 60 27" fill="none" xmlns="http://www.w3.org/2000/svg">
<path d="M25.4347 21V6.45455H30.8892C32.0066 6.45455 32.9441 6.66288 33.7017 7.07955C34.464 7.49621 35.0393 8.06913 35.4276 8.7983C35.8205 9.52273 36.017 10.3466 36.017 11.2699C36.017 12.2027 35.8205 13.0312 35.4276 13.7557C35.0346 14.4801 34.4545 15.0507 33.6875 15.4673C32.9205 15.8793 31.9759 16.0852 30.8537 16.0852H27.2386V13.919H30.4986C31.152 13.919 31.687 13.8054 32.1037 13.5781C32.5204 13.3509 32.8281 13.0384 33.027 12.6406C33.2306 12.2429 33.3324 11.786 33.3324 11.2699C33.3324 10.7538 33.2306 10.2992 33.027 9.90625C32.8281 9.51326 32.518 9.20786 32.0966 8.99006C31.6799 8.76752 31.1425 8.65625 30.4844 8.65625H28.0696V21H25.4347ZM37.7921 21V10.0909H40.3631V21H37.7921ZM39.0847 8.54261C38.6775 8.54261 38.3272 8.40767 38.0336 8.13778C37.74 7.86316 37.5933 7.53409 37.5933 7.15057C37.5933 6.76231 37.74 6.43324 38.0336 6.16335C38.3272 5.88873 38.6775 5.75142 39.0847 5.75142C39.4967 5.75142 39.847 5.88873 40.1359 6.16335C40.4294 6.43324 40.5762 6.76231 40.5762 7.15057C40.5762 7.53409 40.4294 7.86316 40.1359 8.13778C39.847 8.40767 39.4967 8.54261 39.0847 8.54261ZM45.178 6.45455V21H42.607V6.45455H45.178ZM52.1803 21.2131C51.115 21.2131 50.1917 20.9787 49.4104 20.5099C48.6292 20.0412 48.0231 19.3854 47.5923 18.5426C47.1661 17.6998 46.9531 16.715 46.9531 15.5881C46.9531 14.4612 47.1661 13.474 47.5923 12.6264C48.0231 11.7789 48.6292 11.1207 49.4104 10.652C50.1917 10.1832 51.115 9.94886 52.1803 9.94886C53.2457 9.94886 54.169 10.1832 54.9502 10.652C55.7315 11.1207 56.3352 11.7789 56.7613 12.6264C57.1922 13.474 57.4076 14.4612 57.4076 15.5881C57.4076 16.715 57.1922 17.6998 56.7613 18.5426C56.3352 19.3854 55.7315 20.0412 54.9502 20.5099C54.169 20.9787 53.2457 21.2131 52.1803 21.2131ZM52.1945 19.1534C52.7722 19.1534 53.2551 18.9948 53.6434 18.6776C54.0317 18.3556 54.3205 17.9247 54.5099 17.3849C54.704 16.8452 54.8011 16.2438 54.8011 15.581C54.8011 14.9134 54.704 14.3097 54.5099 13.7699C54.3205 13.2254 54.0317 12.7921 53.6434 12.4702C53.2551 12.1482 52.7722 11.9872 52.1945 11.9872C51.6027 11.9872 51.1103 12.1482 50.7173 12.4702C50.329 12.7921 50.0378 13.2254 49.8437 13.7699C49.6543 14.3097 49.5596 14.9134 49.5596 15.581C49.5596 16.2438 49.6543 16.8452 49.8437 17.3849C50.0378 17.9247 50.329 18.3556 50.7173 18.6776C51.1103 18.9948 51.6027 19.1534 52.1945 19.1534Z" fill="black"/>
<rect y="2.5" width="21.0603" height="21.0603" rx="10.5302" fill="url(#paint0_linear_2623_18471)"/>
<path d="M4.56291 26.0364L8.83319 15.5031L3.23438 14.7439L16.235 0.0351562L11.8698 11.043L17.6584 11.897L4.56291 26.0364Z" fill="white"/>
<defs>
<linearGradient id="paint0_linear_2623_18471" x1="0" y1="2.5" x2="21.0603" y2="23.5603" gradientUnits="userSpaceOnUse">
<stop stop-color="#641AE6"/>
<stop offset="1" stop-color="#3CDDBC"/>
</linearGradient>
</defs>
</svg>
